<svg xmlns="http://www.w3.org/2000/svg" width="180" height="180" viewBox="0 0 180 180" role="img">
<title>Ascenda Enterprise Capital</title>
<desc>AEC app icon — diamond mark</desc>

<rect x="0" y="0" width="180" height="180" fill="#080808"/>

<g transform="translate(90, 95)">
  <polygon points="0,-62 40,-20 0,12 -40,-20" fill="#ffffff"/>
  <polygon points="0,-62 40,-20 0,-30" fill="#aaaaaa"/>
  <polygon points="0,12 40,-20 0,-30 -40,-20" fill="#2a2a2a" stroke="#555" stroke-width="0.8"/>
  <line x1="-40" y1="-20" x2="0" y2="12" stroke="#555" stroke-width="0.6"/>
  <line x1="40" y1="-20" x2="0" y2="12" stroke="#555" stroke-width="0.6"/>
  <line x1="-40" y1="-20" x2="0" y2="-30" stroke="#666" stroke-width="0.4"/>
  <line x1="40" y1="-20" x2="0" y2="-30" stroke="#666" stroke-width="0.4"/>
  <g transform="translate(-18, 26)">
    <rect x="0"  y="0"   width="4" height="16" fill="#ffffff" opacity="0.9"/>
    <rect x="7"  y="-6"  width="4" height="22" fill="#ffffff" opacity="0.7"/>
    <rect x="14" y="-12" width="4" height="28" fill="#ffffff" opacity="0.5"/>
    <rect x="21" y="-18" width="4" height="34" fill="#ffffff" opacity="0.3"/>
    <rect x="28" y="-24" width="4" height="40" fill="#ffffff" opacity="0.15"/>
  </g>
</g>

<text x="90" y="164" font-size="9" text-anchor="middle"
  font-family="'Inter', sans-serif" font-weight="500"
  letter-spacing="0.25em" fill="#444">AEC</text>

</svg>
